<mxfile host="app.diagrams.net" modified="2023-11-01T01:07:57.978Z" agent="Mozilla/5.0 (Windows NT 10.0; Win64; x64) AppleWebKit/537.36 (KHTML, like Gecko) Chrome/118.0.0.0 Safari/537.36" etag="CP4-iVyRM0coh4vSaTqo" version="22.0.8" type="device">
  <diagram name="Página-1" id="k_QbR-uhkWDKNrE3jTYx">
    <mxGraphModel dx="637" dy="343" grid="1" gridSize="10" guides="1" tooltips="1" connect="1" arrows="1" fold="1" page="1" pageScale="1" pageWidth="827" pageHeight="1169" math="0" shadow="0">
      <root>
        <mxCell id="0" />
        <mxCell id="1" parent="0" />
        <mxCell id="xgMMrwPW11WeEFZfEMvX-1" value="Secretaria" style="shape=umlActor;verticalLabelPosition=bottom;verticalAlign=top;html=1;outlineConnect=0;" parent="1" vertex="1">
          <mxGeometry x="120" y="220" width="30" height="60" as="geometry" />
        </mxCell>
        <mxCell id="ubBoosUTupuhhF7_ldrP-2" value="" style="endArrow=classic;html=1;rounded=0;exitX=0.5;exitY=0;exitDx=0;exitDy=0;exitPerimeter=0;" edge="1" parent="1" source="xgMMrwPW11WeEFZfEMvX-1" target="ubBoosUTupuhhF7_ldrP-3">
          <mxGeometry width="50" height="50" relative="1" as="geometry">
            <mxPoint x="220" y="230" as="sourcePoint" />
            <mxPoint x="140" y="160" as="targetPoint" />
          </mxGeometry>
        </mxCell>
        <mxCell id="ubBoosUTupuhhF7_ldrP-3" value="Gerenciar escala de medico&amp;nbsp;" style="ellipse;whiteSpace=wrap;html=1;fontSize=10;" vertex="1" parent="1">
          <mxGeometry x="110" y="120" width="60" height="50" as="geometry" />
        </mxCell>
        <mxCell id="ubBoosUTupuhhF7_ldrP-4" value="" style="endArrow=classic;html=1;rounded=0;" edge="1" parent="1" source="xgMMrwPW11WeEFZfEMvX-1" target="ubBoosUTupuhhF7_ldrP-5">
          <mxGeometry width="50" height="50" relative="1" as="geometry">
            <mxPoint x="220" y="230" as="sourcePoint" />
            <mxPoint x="200" y="200" as="targetPoint" />
          </mxGeometry>
        </mxCell>
        <mxCell id="ubBoosUTupuhhF7_ldrP-5" value="Determinar calendário do posto" style="ellipse;whiteSpace=wrap;html=1;fontSize=10;" vertex="1" parent="1">
          <mxGeometry x="170" y="150" width="70" height="50" as="geometry" />
        </mxCell>
        <mxCell id="ubBoosUTupuhhF7_ldrP-7" value="" style="endArrow=classic;html=1;rounded=0;exitX=1;exitY=0.3333333333333333;exitDx=0;exitDy=0;exitPerimeter=0;" edge="1" parent="1" source="xgMMrwPW11WeEFZfEMvX-1" target="ubBoosUTupuhhF7_ldrP-8">
          <mxGeometry width="50" height="50" relative="1" as="geometry">
            <mxPoint x="220" y="230" as="sourcePoint" />
            <mxPoint x="220" y="220" as="targetPoint" />
          </mxGeometry>
        </mxCell>
        <mxCell id="ubBoosUTupuhhF7_ldrP-8" value="Enviar mensagens em caso de cancelamento de consulta" style="ellipse;whiteSpace=wrap;html=1;fontSize=8;" vertex="1" parent="1">
          <mxGeometry x="210" y="230" width="90" height="60" as="geometry" />
        </mxCell>
      </root>
    </mxGraphModel>
  </diagram>
</mxfile>
